



<svg xmlns="http://www.w3.org/2000/svg" id="Layer_1" viewBox="0 0 500 500">


<style>
  
 .st0{fill:#6B6B6B;} .st1{fill:#F23054;} .st2{fill:#323333;}
  
</style>

  <path id="XMLID_5_" d="M198.2 226.2H.8L.6 201 .8 1l25-.2h198l-.3 25.3v175c0 14-11.4 26-25.3 26z" class="st0"/>
  <path id="XMLID_8_" d="M500 226.4H302.4c-14 0-25.3-11.3-25.3-25.3V0l26 1 197-.2v225.7z" class="st0"/>
  <path id="XMLID_9_" d="M198.4 500.4H26L.7 500 1 300.3 0 275h198.4c14 0 25.3 11.3 25.3 25.3v200h-25.3z" class="st0"/>
  <path id="XMLID_10_" d="M500 500H277V300.3c0-14 11.4-25.3 25.4-25.3H500v225z" class="st0"/>
  <g id="XMLID_6_">
    <path id="XMLID_28_" d="M205 199.4c0 5-4.2 9.3-9.3 9.3H29c-5 0-9.3-4.2-9.3-9.3v-173c0-5 4.2-9.2 9.3-9.2h167c5 0 9.2 4.2 9.2 9.3v172.8z" class="st1"/>
    <g id="XMLID_23_">
      <path id="XMLID_27_" d="M203.5 199.4c-.8 10.3-13.7 7.8-21 7.8H65c-11.6 0-23.4.4-35 0-10-.4-9-8.4-9-15.5V32c0-6-.3-13 8-13.4 15-1 30 0 45 0h76.3c15 0 30.2-1 45 0 3.3.2 6 1.5 7.4 4.5 1.3 3 .8 7 .8 10v167c0 2 3 2 3 0V34c0-4.8.8-10-2.5-13.8-2.2-2.6-5-3.7-8.3-4h-164c-7 0-13.3 3-13.6 11V200c1 14.3 20 10.8 30 10.8h142c4 0 9 .5 12-1.7 3-2 5-5 5-9 0-2-3-2-3 0z" class="st2"/>
    </g>
  </g>
  <g id="XMLID_4_">
    <path id="XMLID_49_" d="M195.5 483.5h-167c-5 0-9.2-4.2-9.2-9.3v-173c0-5 4.2-9.2 9.3-9.2h167c5 0 9.2 4.2 9.2 9.3v173c0 5-4 9.3-9.3 9.3z" class="st1"/>
    <g id="XMLID_44_">
      <path id="XMLID_48_" d="M195.5 482H39c-5.7 0-15.7 1.7-18-5.5-1.3-4-.3-9.6-.3-13.8V350c0-16-1-32.2 0-48.2.5-9 8.5-8 14.8-8h108.3c17 0 34.3-1 51.3 0 12 .5 9 16.6 9 24.6V464c0 6.5 2 17.4-8 18-2 0-2 3 0 3 12-1 11-12.3 11-21.3V309.3c0-5 1-10.7-2-14.8-2-3-6-4-9-4h-21c-47.7 0-95.5-.5-143.2 0-7 .2-12 4.7-12 12.2v167.8c0 7.3 2.3 14.2 11 14.6 5.6 1 11.4 0 17 0h149c2 0 2-3 0-3z" class="st2"/>
    </g>
  </g>
  <g id="XMLID_7_">
    <path id="XMLID_42_" d="M472 483.5H305c-5 0-9.2-4.2-9.2-9.3v-173c0-5 4.2-9.2 9.3-9.2h167c5 0 10 4.2 10 9.3v173c0 5-4 9.3-9 9.3z" class="st1"/>
    <g id="XMLID_37_">
      <path id="XMLID_41_" d="M472 482H315.8c-5.8 0-15.8 1.7-18-5.5-1.4-4-.4-9.6-.4-13.8V350c0-16-1-32.2 0-48.2.5-9 8.5-8 14.8-8h108.3c17 0 34.3-1 51.3 0 11.6.5 8.3 16.6 8.3 24.6V464c0 6.5 2 17.4-8 18-1 0-1 3 0 3 12-1 11-12.3 11-21.3V309.3c0-5 1-10.7-2-14.8-2-3-6-4-9-4h-21c-47 0-95-.5-143 0-7 .2-12 4.7-12 12.2v167.8c0 7.3 2.7 14.2 11 14.6 6 1 11.8 0 17 0h149c2 0 2-3 0-3z" class="st2"/>
    </g>
  </g>
  <g id="XMLID_2_">
    <path id="XMLID_35_" d="M472 208.7H305c-5 0-9.2-4.2-9.2-9.3v-173c0-5 4.2-9.2 9.3-9.2h167c5 0 10 4.2 10 9.3v172.8c0 5.3-4 9.4-9 9.4z" class="st1"/>
    <g id="XMLID_30_">
      <path id="XMLID_34_" d="M472 207.2H315.8c-5.8 0-15.8 1.7-18-5.5-1.4-4-.4-9.6-.4-13.8V75c0-16-1-32.4 0-48.4.5-9.2 8.5-8.2 14.8-8.2h108.3c17 0 34.3-1 51.3 0C483.4 19 480 35 480 43v146c0 6.7 2 17.5-8 18.2-1.6 0-1.6 3 0 3 12-1 11-12.4 11-21.4V34.5c0-5 1-10.7-2.4-14.8-2.5-3-6-4-9.6-4h-21c-47.8 0-95.6-.5-143.3 0-7.4.2-12.2 4.7-12.3 12.2v167c0 7 2.3 14 11 14H472c2 0 2-3 0-3z" class="st2"/>
    </g>
  </g>
</svg>